<svg viewBox="0 0 200 30" xmlns="http://www.w3.org/2000/svg">
<path d="M13.2213 7.25075C13.1457 6.42252 12.8093 5.77876 12.2121 5.31948C11.6225 4.85266 10.7796 4.61925 9.6835 4.61925C8.95781 4.61925 8.35306 4.71336 7.86926 4.9016C7.38546 5.08983 7.02262 5.34959 6.78072 5.68088C6.53882 6.00464 6.41409 6.37735 6.40653 6.79899C6.39141 7.14534 6.45945 7.45028 6.61063 7.7138C6.76938 7.97733 6.99616 8.21074 7.29097 8.41403C7.59335 8.60979 7.95619 8.78297 8.37952 8.93356C8.80284 9.08414 9.27908 9.21591 9.80823 9.32885L11.8039 9.78061C12.9529 10.0291 13.9659 10.3604 14.8427 10.7745C15.7272 11.1886 16.468 11.6818 17.0652 12.254C17.6699 12.8262 18.1273 13.485 18.4372 14.2304C18.7471 14.9758 18.9059 15.8116 18.9134 16.7377C18.9059 18.1984 18.5355 19.452 17.8022 20.4986C17.069 21.5452 16.0144 22.3471 14.6386 22.9042C13.2704 23.4614 11.6187 23.74 9.6835 23.74C7.74075 23.74 6.04746 23.4501 4.60363 22.8704C3.1598 22.2906 2.03724 21.4097 1.23595 20.2276C0.434662 19.0455 0.022678 17.5509 0 15.7438H5.37468C5.42004 16.4892 5.62036 17.1104 5.97565 17.6073C6.33094 18.1043 6.81851 18.4808 7.43838 18.7367C8.0658 18.9927 8.7915 19.1207 9.61547 19.1207C10.3714 19.1207 11.0139 19.0191 11.5431 18.8158C12.0798 18.6125 12.4918 18.3302 12.779 17.9688C13.0663 17.6073 13.2137 17.1932 13.2213 16.7264C13.2137 16.2897 13.0776 15.917 12.8131 15.6083C12.5485 15.2921 12.1403 15.021 11.5885 14.7951C11.0442 14.5617 10.3487 14.3471 9.50208 14.1514L7.07553 13.5867C5.06475 13.1274 3.48107 12.3858 2.32449 11.3618C1.16792 10.3302 0.593407 8.93732 0.600967 7.18299C0.593407 5.75241 0.978933 4.49878 1.75754 3.42208C2.53615 2.34539 3.61336 1.50587 4.98916 0.903521C6.36495 0.301173 7.93352 0 9.69484 0C11.494 0 13.055 0.304938 14.3778 0.914813C15.7083 1.51716 16.7401 2.36421 17.4734 3.45597C18.2066 4.54772 18.5808 5.81265 18.5959 7.25075H13.2213Z"/>
<path d="M21.7482 29.9517V6.09876H27.2363V9.06908H27.4063C27.6331 8.54203 27.9544 8.0338 28.3702 7.54439C28.7935 7.05499 29.3302 6.65593 29.9803 6.34723C30.638 6.031 31.4241 5.87288 32.3388 5.87288C33.5483 5.87288 34.6784 6.18911 35.7292 6.82158C36.7875 7.45404 37.6417 8.42909 38.2918 9.74672C38.9419 11.0644 39.2669 12.7434 39.2669 14.7838C39.2669 16.749 38.9532 18.3942 38.3258 19.7193C37.7059 21.0445 36.8668 22.0384 35.8085 22.7009C34.7578 23.3635 33.5899 23.6948 32.3048 23.6948C31.4279 23.6948 30.6682 23.5518 30.0257 23.2656C29.3831 22.9795 28.8426 22.6031 28.4042 22.1362C27.9733 21.6694 27.6407 21.1687 27.4063 20.6341H27.293V29.9517H21.7482ZM27.1796 14.7726C27.1796 15.7062 27.3043 16.5194 27.5538 17.2121C27.8108 17.9048 28.1774 18.4431 28.6536 18.8271C29.1374 19.2036 29.7157 19.3918 30.3885 19.3918C31.0688 19.3918 31.6471 19.2036 32.1234 18.8271C32.5996 18.4431 32.9587 17.9048 33.2006 17.2121C33.45 16.5194 33.5748 15.7062 33.5748 14.7726C33.5748 13.8389 33.45 13.0295 33.2006 12.3443C32.9587 11.6592 32.5996 11.1284 32.1234 10.7519C31.6547 10.3754 31.0764 10.1872 30.3885 10.1872C29.7082 10.1872 29.1299 10.3717 28.6536 10.7406C28.1774 11.1095 27.8108 11.6366 27.5538 12.3218C27.3043 13.0069 27.1796 13.8239 27.1796 14.7726Z"/>
<path d="M47.0823 23.74C45.9711 23.74 44.9846 23.5555 44.1229 23.1866C43.2687 22.8101 42.5921 22.2454 42.0932 21.4925C41.6018 20.732 41.3561 19.7796 41.3561 18.6351C41.3561 17.6713 41.5262 16.8582 41.8664 16.1956C42.2066 15.533 42.6752 14.9947 43.2724 14.5806C43.8696 14.1664 44.5575 13.854 45.3361 13.6432C46.1147 13.4248 46.9463 13.278 47.8307 13.2027C48.821 13.1123 49.6185 13.0182 50.2232 12.9203C50.828 12.8149 51.2664 12.6681 51.5386 12.4799C51.8183 12.2841 51.9581 12.0093 51.9581 11.6554V11.5989C51.9581 11.0192 51.7578 10.5712 51.3571 10.255C50.9565 9.93872 50.416 9.78061 49.7357 9.78061C49.0024 9.78061 48.4128 9.93872 47.9668 10.255C47.5208 10.5712 47.2373 11.0079 47.1164 11.5651L42.0025 11.3844C42.1537 10.3302 42.543 9.38908 43.1704 8.56085C43.8054 7.7251 44.6747 7.07005 45.7783 6.5957C46.8896 6.11382 48.2238 5.87288 49.781 5.87288C50.8922 5.87288 51.9165 6.00464 52.8539 6.26817C53.7912 6.52417 54.6076 6.90064 55.3031 7.39757C55.9986 7.88698 56.5353 8.48932 56.9132 9.20461C57.2988 9.9199 57.4915 10.7368 57.4915 11.6554V23.4463H52.2756V21.0294H52.1395C51.8296 21.6167 51.4327 22.1137 50.9489 22.5202C50.4727 22.9268 49.9095 23.2318 49.2594 23.4351C48.6169 23.6383 47.8912 23.74 47.0823 23.74ZM48.7945 20.1259C49.3917 20.1259 49.9284 20.0054 50.4047 19.7645C50.8885 19.5236 51.274 19.1923 51.5612 18.7706C51.8485 18.3415 51.9921 17.8445 51.9921 17.2798V15.6309C51.8334 15.7137 51.6406 15.789 51.4138 15.8568C51.1946 15.9245 50.9527 15.9885 50.6881 16.0488C50.4236 16.109 50.1514 16.1617 49.8717 16.2069C49.592 16.2521 49.3237 16.2935 49.0667 16.3311C48.5451 16.4139 48.0991 16.5419 47.7287 16.7151C47.3658 16.8883 47.0861 17.1142 46.8896 17.3928C46.7006 17.6638 46.6061 17.9876 46.6061 18.364C46.6061 18.9363 46.8102 19.373 47.2184 19.6742C47.6342 19.9753 48.1595 20.1259 48.7945 20.1259Z"/>
<path d="M69.0119 23.7739C67.175 23.7739 65.5989 23.3974 64.2836 22.6445C62.9758 21.8915 61.9704 20.845 61.2674 19.5047C60.5644 18.157 60.2129 16.5984 60.2129 14.829C60.2129 13.0521 60.5644 11.4935 61.2674 10.1533C61.978 8.80556 62.9872 7.75521 64.2949 7.00228C65.6102 6.24935 67.1788 5.87288 69.0006 5.87288C70.6107 5.87288 72.013 6.16276 73.2074 6.74252C74.4093 7.32228 75.3467 8.14297 76.0194 9.20461C76.6998 10.2587 77.0588 11.4973 77.0966 12.9203H71.9147C71.8089 12.0319 71.5065 11.3354 71.0076 10.8309C70.5163 10.3265 69.8737 10.0743 69.08 10.0743C68.4374 10.0743 67.8743 10.255 67.3905 10.6164C66.9067 10.9702 66.5287 11.4973 66.2566 12.1975C65.992 12.8902 65.8597 13.7486 65.8597 14.7726C65.8597 15.7965 65.992 16.6624 66.2566 17.3702C66.5287 18.0704 66.9067 18.6012 67.3905 18.9626C67.8743 19.3165 68.4374 19.4934 69.08 19.4934C69.594 19.4934 70.0476 19.3843 70.4407 19.1659C70.8413 18.9476 71.1701 18.6276 71.4272 18.2059C71.6842 17.7768 71.8467 17.2572 71.9147 16.6474H77.0966C77.0437 18.0779 76.6847 19.3278 76.0194 20.397C75.3618 21.4661 74.4358 22.2981 73.2414 22.8929C72.0546 23.4802 70.6448 23.7739 69.0119 23.7739Z"/>
<path d="M88.0756 23.7739C86.2538 23.7739 84.6815 23.4162 83.3586 22.7009C82.0433 21.9781 81.0303 20.9504 80.3198 19.6177C79.6167 18.2775 79.2652 16.685 79.2652 14.8403C79.2652 13.0483 79.6205 11.4822 80.3311 10.142C81.0417 8.79426 82.0433 7.74768 83.3359 7.00228C84.6286 6.24935 86.1518 5.87288 87.9055 5.87288C89.1453 5.87288 90.2792 6.06488 91.3072 6.44887C92.3353 6.83287 93.2235 7.40134 93.9719 8.15427C94.7203 8.9072 95.3023 9.83708 95.7181 10.9439C96.1339 12.0432 96.3418 13.3043 96.3418 14.7274V16.1052H81.2042V12.8977H91.1825C91.175 12.3105 91.0351 11.7872 90.763 11.3279C90.4908 10.8686 90.1166 10.511 89.6404 10.255C89.1717 9.99143 88.6312 9.85966 88.0189 9.85966C87.3991 9.85966 86.8435 9.99896 86.3521 10.2775C85.8607 10.5486 85.4714 10.9213 85.1842 11.3956C84.8969 11.8625 84.7457 12.3933 84.7306 12.9881V16.2521C84.7306 16.9598 84.8705 17.581 85.1502 18.1156C85.4299 18.6426 85.8267 19.053 86.3408 19.3466C86.8548 19.6403 87.4671 19.7871 88.1777 19.7871C88.669 19.7871 89.115 19.7193 89.5157 19.5838C89.9163 19.4483 90.2603 19.2487 90.5475 18.9852C90.8348 18.7217 91.0502 18.3979 91.1939 18.0139L96.2851 18.1608C96.0734 19.2977 95.6085 20.2878 94.8904 21.1311C94.1798 21.9668 93.2462 22.6181 92.0896 23.0849C90.9331 23.5442 89.5951 23.7739 88.0756 23.7739Z"/>
<path d="M118.915 7.54439H116.103C115.936 6.73875 115.645 6.031 115.23 5.42112C114.821 4.81125 114.323 4.29925 113.733 3.88514C113.151 3.46349 112.505 3.14726 111.794 2.93644C111.083 2.72562 110.343 2.62021 109.572 2.62021C108.165 2.62021 106.892 2.97409 105.75 3.68185C104.616 4.3896 103.713 5.43242 103.04 6.81028C102.375 8.18815 102.042 9.87849 102.042 11.8813C102.042 13.8841 102.375 15.5744 103.04 16.9523C103.713 18.3302 104.616 19.373 105.75 20.0807C106.892 20.7885 108.165 21.1424 109.572 21.1424C110.343 21.1424 111.083 21.037 111.794 20.8261C112.505 20.6153 113.151 20.3029 113.733 19.8887C114.323 19.4671 114.821 18.9513 115.23 18.3415C115.645 17.7241 115.936 17.0163 116.103 16.2182H118.915C118.703 17.4003 118.318 18.4582 117.758 19.3918C117.199 20.3254 116.503 21.1198 115.672 21.7748C114.84 22.4224 113.907 22.9155 112.871 23.2543C111.843 23.5932 110.743 23.7626 109.572 23.7626C107.591 23.7626 105.83 23.2807 104.288 22.3169C102.745 21.3532 101.532 19.9829 100.648 18.2059C99.7633 16.429 99.3211 14.3208 99.3211 11.8813C99.3211 9.44178 99.7633 7.33357 100.648 5.55665C101.532 3.77973 102.745 2.40939 104.288 1.44563C105.83 0.481878 107.591 0 109.572 0C110.743 0 111.843 0.16941 112.871 0.50823C113.907 0.84705 114.84 1.34399 115.672 1.99904C116.503 2.64656 117.199 3.43714 117.758 4.37078C118.318 5.29689 118.703 6.35476 118.915 7.54439Z"/>
<path d="M130.172 23.8078C128.599 23.8078 127.22 23.4351 126.033 22.6896C124.854 21.9442 123.931 20.9014 123.266 19.5612C122.609 18.221 122.28 16.6549 122.28 14.8629C122.28 13.0559 122.609 11.4785 123.266 10.1307C123.931 8.78297 124.854 7.73639 126.033 6.99099C127.22 6.24558 128.599 5.87288 130.172 5.87288C131.744 5.87288 133.12 6.24558 134.299 6.99099C135.486 7.73639 136.408 8.78297 137.066 10.1307C137.731 11.4785 138.064 13.0559 138.064 14.8629C138.064 16.6549 137.731 18.221 137.066 19.5612C136.408 20.9014 135.486 21.9442 134.299 22.6896C133.12 23.4351 131.744 23.8078 130.172 23.8078ZM130.172 21.4134C131.366 21.4134 132.349 21.1085 133.12 20.4986C133.891 19.8887 134.462 19.0869 134.832 18.093C135.202 17.0991 135.388 16.0224 135.388 14.8629C135.388 13.7034 135.202 12.6229 134.832 11.6215C134.462 10.6201 133.891 9.81072 133.12 9.19332C132.349 8.57591 131.366 8.26721 130.172 8.26721C128.977 8.26721 127.995 8.57591 127.224 9.19332C126.452 9.81072 125.882 10.6201 125.511 11.6215C125.141 12.6229 124.956 13.7034 124.956 14.8629C124.956 16.0224 125.141 17.0991 125.511 18.093C125.882 19.0869 126.452 19.8887 127.224 20.4986C127.995 21.1085 128.977 21.4134 130.172 21.4134Z"/>
<path d="M142.148 23.4463V6.09876H144.734V8.71897H144.915C145.233 7.86063 145.807 7.16416 146.639 6.62958C147.47 6.095 148.408 5.8277 149.451 5.8277C149.647 5.8277 149.893 5.83147 150.188 5.839C150.483 5.84653 150.706 5.85782 150.857 5.87288V8.58344C150.766 8.56085 150.558 8.52697 150.233 8.4818C149.916 8.42909 149.579 8.40274 149.224 8.40274C148.377 8.40274 147.621 8.57968 146.956 8.93356C146.299 9.27991 145.777 9.76178 145.391 10.3792C145.013 10.9891 144.824 11.6855 144.824 12.4686V23.4463H142.148Z" />
<path d="M156.705 13.0107V23.4463H154.029V6.09876H156.614V8.80932H156.841C157.249 7.92839 157.869 7.22063 158.701 6.68605C159.532 6.14394 160.606 5.87288 161.921 5.87288C163.1 5.87288 164.132 6.11382 165.016 6.5957C165.901 7.07005 166.589 7.79286 167.08 8.76415C167.571 9.7279 167.817 10.9477 167.817 12.4234V23.4463H165.141V12.6041C165.141 11.2413 164.786 10.1797 164.075 9.4192C163.365 8.6512 162.389 8.26721 161.15 8.26721C160.296 8.26721 159.532 8.45168 158.859 8.82061C158.194 9.18955 157.669 9.7279 157.283 10.4357C156.898 11.1434 156.705 12.0018 156.705 13.0107Z"/>
<path d="M180.009 23.8078C178.331 23.8078 176.884 23.4388 175.667 22.7009C174.457 21.9555 173.523 20.9165 172.866 19.5838C172.216 18.2436 171.891 16.685 171.891 14.9081C171.891 13.1312 172.216 11.5651 172.866 10.2098C173.523 8.84697 174.438 7.78533 175.61 7.02487C176.789 6.25688 178.165 5.87288 179.737 5.87288C180.644 5.87288 181.54 6.02347 182.425 6.32464C183.309 6.62581 184.114 7.11522 184.84 7.79286C185.565 8.46297 186.144 9.35143 186.575 10.4582C187.006 11.5651 187.221 12.9279 187.221 14.5467V15.6761H173.796V13.3721H184.5C184.5 12.3933 184.303 11.5199 183.91 10.7519C183.524 9.9839 182.973 9.37779 182.254 8.93356C181.544 8.48932 180.705 8.26721 179.737 8.26721C178.671 8.26721 177.749 8.53074 176.971 9.05779C176.199 9.57731 175.606 10.255 175.19 11.0907C174.775 11.9265 174.567 12.8225 174.567 13.7787V15.3147C174.567 16.6248 174.793 17.7353 175.247 18.6464C175.708 19.5499 176.347 20.2389 177.163 20.7132C177.98 21.18 178.928 21.4134 180.009 21.4134C180.712 21.4134 181.347 21.3155 181.914 21.1198C182.489 20.9165 182.984 20.6153 183.4 20.2163C183.815 19.8097 184.137 19.3052 184.364 18.7029L186.949 19.4257C186.677 20.2991 186.219 21.0671 185.577 21.7297C184.934 22.3847 184.141 22.8967 183.196 23.2656C182.251 23.6271 181.189 23.8078 180.009 23.8078Z"/>
<path d="M191.292 23.4463V6.09876H193.877V8.71897H194.058C194.376 7.86063 194.95 7.16416 195.782 6.62958C196.613 6.095 197.551 5.8277 198.594 5.8277C198.79 5.8277 199.036 5.83147 199.331 5.839C199.626 5.84653 199.849 5.85782 200 5.87288V8.58344C199.909 8.56085 199.701 8.52697 199.376 8.4818C199.059 8.42909 198.722 8.40274 198.367 8.40274C197.521 8.40274 196.765 8.57968 196.099 8.93356C195.442 9.27991 194.92 9.76178 194.535 10.3792C194.157 10.9891 193.968 11.6855 193.968 12.4686V23.4463H191.292Z"/>
</svg>
